<svg version="1.1" id="Layer_1" xmlns="http://www.w3.org/2000/svg" xmlns:xlink="http://www.w3.org/1999/xlink" x="0px" y="0px"
	 width="100%" viewBox="0 0 96 96" enable-background="new 0 0 96 96" xml:space="preserve">
<path fill="#000000" opacity="1.000000" stroke="none" 
	d="
M59.000000,97.000000 
	C39.333336,97.000000 20.166674,97.000000 1.000008,97.000000 
	C1.000005,65.000008 1.000005,33.000019 1.000003,1.000021 
	C32.999985,1.000014 64.999969,1.000014 96.999969,1.000007 
	C96.999977,32.999981 96.999977,64.999962 96.999985,96.999969 
	C84.500000,97.000000 72.000000,97.000000 59.000000,97.000000 
M34.000668,36.500000 
	C34.000668,54.240936 34.000668,71.981873 34.000668,89.607269 
	C44.737209,89.607269 54.786392,89.607269 64.745010,89.607269 
	C64.745010,62.629631 64.745010,36.047489 64.745010,9.307873 
	C54.444187,9.307873 44.400032,9.307873 34.000553,9.307873 
	C34.000553,18.243076 34.000553,26.871538 34.000668,36.500000 
z"/>
<path fill="#EE3E37" opacity="1.000000" stroke="none" 
	d="
M34.000610,36.000000 
	C34.000553,26.871538 34.000553,18.243076 34.000553,9.307873 
	C44.400032,9.307873 54.444187,9.307873 64.745010,9.307873 
	C64.745010,36.047489 64.745010,62.629631 64.745010,89.607269 
	C54.786392,89.607269 44.737209,89.607269 34.000668,89.607269 
	C34.000668,71.981873 34.000668,54.240936 34.000610,36.000000 
M43.003010,56.569859 
	C42.522545,60.284107 43.009617,63.675098 40.563190,67.610992 
	C38.273655,71.294479 40.073277,77.519646 40.073277,82.637207 
	C46.651382,82.637207 52.703976,82.637207 58.999393,82.637207 
	C58.999393,78.458862 59.039307,74.640686 58.979198,70.824081 
	C58.956066,69.355148 59.036228,66.758545 58.505508,66.603302 
	C54.559147,65.448975 56.317646,62.383713 56.038811,60.085171 
	C55.836945,58.421116 55.999424,56.712864 55.999424,55.024319 
	C54.021397,59.522255 50.465260,59.528622 46.991596,58.805439 
	C45.527164,58.500557 44.337254,56.877064 43.003010,56.569859 
M58.845295,16.832329 
	C52.711842,16.447588 46.578392,16.062845 41.346539,15.734659 
	C35.662807,28.639557 45.533012,35.935955 49.170509,45.234264 
	C54.041740,36.397369 61.890957,28.908733 58.845295,16.832329 
M42.982826,88.993462 
	C48.750557,88.993462 54.518288,88.993462 60.286018,88.993462 
	C60.282932,88.754311 60.279846,88.515167 60.276756,88.276016 
	C53.106133,88.276016 45.935505,88.276016 38.764877,88.276016 
	C38.764355,88.514992 38.763836,88.753960 38.763313,88.992935 
	C39.891018,88.992935 41.018726,88.992935 42.982826,88.993462 
z"/>
<path fill="#000000" opacity="1.000000" stroke="none" 
	d="
M43.012783,56.211411 
	C44.337254,56.877064 45.527164,58.500557 46.991596,58.805439 
	C50.465260,59.528622 54.021397,59.522255 55.999424,55.024319 
	C55.999424,56.712864 55.836945,58.421116 56.038811,60.085171 
	C56.317646,62.383713 54.559147,65.448975 58.505508,66.603302 
	C59.036228,66.758545 58.956066,69.355148 58.979198,70.824081 
	C59.039307,74.640686 58.999393,78.458862 58.999393,82.637207 
	C52.703976,82.637207 46.651382,82.637207 40.073277,82.637207 
	C40.073277,77.519646 38.273655,71.294479 40.563190,67.610992 
	C43.009617,63.675098 42.522545,60.284107 43.012783,56.211411 
z"/>
<path fill="#000000" opacity="1.000000" stroke="none" 
	d="
M58.909176,17.305117 
	C61.890957,28.908733 54.041740,36.397369 49.170509,45.234264 
	C45.533012,35.935955 35.662807,28.639557 41.346539,15.734659 
	C46.578392,16.062845 52.711842,16.447588 58.909176,17.305117 
z"/>
<path fill="#A7857F" opacity="1.000000" stroke="none" 
	d="
M42.564629,88.993195 
	C41.018726,88.992935 39.891018,88.992935 38.763313,88.992935 
	C38.763836,88.753960 38.764355,88.514992 38.764877,88.276016 
	C45.935505,88.276016 53.106133,88.276016 60.276756,88.276016 
	C60.279846,88.515167 60.282932,88.754311 60.286018,88.993462 
	C54.518288,88.993462 48.750557,88.993462 42.564629,88.993195 
z"/>
</svg>